<?xml version="1.0" encoding="UTF-8"?>
<svg id="_圖層_1" data-name="圖層_1" xmlns="http://www.w3.org/2000/svg" version="1.1" xmlns:cc="http://creativecommons.org/ns#" xmlns:dc="http://purl.org/dc/elements/1.1/" xmlns:rdf="http://www.w3.org/1999/02/22-rdf-syntax-ns#" viewBox="0 0 278.7 254.4">
  <!-- Generator: Adobe Illustrator 29.6.1, SVG Export Plug-In . SVG Version: 2.1.1 Build 9)  -->
  <defs>
    <style>
      .st0 {
        fill: #e82127;
      }
    </style>
  </defs>
  <path class="st0" d="M139.3,252.5l35.5-199.5c33.8,0,44.5,3.7,46,18.8,0,0,22.7-8.5,34.1-25.6-44.6-20.7-89.5-21.6-89.5-21.6l-26.2,31.9h0s-26.2-31.9-26.2-31.9c0,0-44.9.9-89.5,21.6,11.4,17.2,34.1,25.6,34.1,25.6,1.5-15.1,12.2-18.8,45.8-18.9l35.8,199.5"/>
  <path class="st0" d="M139.3,15.4c36.1-.3,77.4,5.6,119.7,24,5.7-10.2,7.1-14.7,7.1-14.7C219.9,6.4,176.6.2,139.3,0,102.1.2,58.8,6.4,12.5,24.7c0,0,2.1,5.5,7.1,14.7C61.9,20.9,103.2,15.1,139.3,15.4h0"/>
</svg>